<svg xmlns="http://www.w3.org/2000/svg" viewBox="0 0 2333.26 597.48">
    <defs>
        <style>.cls-1{fill:#fff;}</style>
    </defs>
    <title>Logo Complet white</title>
    <g id="Calque_2" data-name="Calque 2">
        <g id="Calque_1-2" data-name="Calque 1">
            <path class="cls-1"
                  d="M1177.66,594.18c-20.57-2.85-40.44-8.15-58.81-18.08-33.53-18.14-51.24-46.8-55.58-84.24-.19-1.57-.67-3.11-1-4.66v-376c1.13-6.52,2-13.09,3.45-19.53,8.86-39.49,33.8-64.59,70.9-78.6C1161.2,3.78,1186.84.13,1213,.09q135.16-.24,270.31,0c2,0,4,.1,6,.16v188l-10.94,2.15c-.08,1.58-.21,3-.22,4.51-.08,11.08-.07,11.08,11.16,12.34v12a1.73,1.73,0,0,0-.5-.07c-12.23,1.28-12.22,1.28-13.91,13.16-.16,1.14-.49,2.25-.78,3.53-3.42.26-6.73.71-10,.7-3.47,0-4.63,1.61-4.72,4.85-.07,2.78-.58,5.56-.9,8.44h-14.18c-.45-4.12-.89-8.06-1.37-12.38h-16.25v27.19h-14.1c-.76-4.59-1.54-9.29-2.38-14.33h-19.39a6.69,6.69,0,0,1-.82-1.6c-.57-3.61,0-8.09-1.93-10.58-1.72-2.19-6.27-2.15-9.67-3.12V166.72l11.75-1.42V150l-12.78-1.74c-.2-3.77-.23-7-.57-10.31-.44-4.07.68-7.24,4.51-9.11,5.89-2.87,3.33-8,3-12.29-.29-4-4.07-3.84-7-3.84-49.33,0-98.66-.2-148,.16a67.67,67.67,0,0,0-21.88,4.2c-12.14,4.35-18.18,13.94-19.14,26.73-.18,2.32-.16,4.66-.16,7,0,98,.4,196-.25,294-.2,29.43,15.88,37.32,36.77,39.24,2.15.2,4.33.17,6.49.17h142.15v113h-171C1194.06,596.2,1185.84,595.32,1177.66,594.18ZM1420.39,135c2.28-10.44.32-15.79-6.05-16.75-9.2-1.4-11.63,1.64-13,16.75Zm42.76,7.13h-17.42V157h17.42Zm-70,34.16c-2,.66-4.84,3.41-4.75,5.09.18,3.49,1,8.15,3.44,10.07,4.89,3.92,11,1,12.5-5.11,1-3.82,1.59-7.73,2.53-12.43C1401.64,174.76,1397.23,175,1393.18,176.3Zm67.34-12v14.94c4.53,0,10.26,1.72,13.4-.4,4.7-3.17,1.7-9.36,1.64-14.54Zm-14.71,31.18c-2.83-2.55-9-1.37-14.2-1.85V209h16C1447.11,204.15,1448.33,197.74,1445.81,195.46Zm1-31h-15.16v14.85h15.16Zm-43.4-14.16v15.56c4.07,0,8.17.18,12.24-.13a3.91,3.91,0,0,0,2.63-2.73c.3-4.1.12-8.24.12-12.7Zm24-49v15.09h15V101.26Zm.7,94.14v-15H1413.6v15ZM1459,234.09v-15h-14.94v15Zm-41.09,3.65V223.08H1403.1v14.66Z"/>
            <path class="cls-1"
                  d="M1438.54,332.94c0-5.5.11-10.76,0-16-.11-4.23,1-7.07,6-7,1.26,0,2.53-.67,4-1.1V294.36c-7.67,0-15.08,0-22.49,0-4.48,0-9,.5-10.53-5.7-.39-1.53-4.2-2.71-6.58-3.06-2.54-.36-5.24.45-8.17.79v46.56Zm-37.49,39.44v14.44h14.27V372.38ZM1376,407h14V393h-14Zm81.43-76.39v13.72h13.9V330.57Zm-36.37,21v14.3h13.38v-14.3ZM1487.87,375h-14.18v13.92h14.18ZM1377.6,305V320h13.93c.31-4.29.62-8.55,1-13.36Zm67.46-22.62V268.48H1431.4v13.91Zm42.83,7.05H1473.5v13.62h14.39Zm-96.76,52.15h-13.62v13.77h13.62Zm81.23,113.85v14.24h13.44V455.44Zm-83.95-201.87h-13v13.51h13Zm99.57-3.06v-13h-10.89v12.38Z"/>
            <path class="cls-1"
                  d="M1400.73,332.94h37.81c0-5.5.11-10.76,0-16-.11-4.23,1-7.07,6-7,1.26,0,2.53-.67,4-1.1V294.36c-7.67,0-15.08,0-22.49,0-4.48,0-9,.5-10.53-5.7-.39-1.53-4.2-2.71-6.58-3.06-2.54-.36-5.24.45-8.17.79Z"/>
            <path class="cls-1" d="M1415.32,372.38h-14.27v14.44h14.27Z"/>
            <path class="cls-1" d="M1376,393v14h14V393Z"/>
            <path class="cls-1" d="M1471.37,330.57h-13.9v13.72h13.9Z"/>
            <path class="cls-1" d="M1434.48,351.55H1421.1v14.3h13.38Z"/>
            <path class="cls-1" d="M1487.87,388.94V375h-14.18v13.92Z"/>
            <path class="cls-1" d="M1392.5,306.59,1377.6,305V320h13.93C1391.84,315.66,1392.15,311.4,1392.5,306.59Z"/>
            <path class="cls-1" d="M1431.4,282.39h13.66V268.48H1431.4Z"/>
            <path class="cls-1" d="M1487.89,303.06V289.44H1473.5v13.62Z"/>
            <path class="cls-1" d="M1391.13,355.36V341.59h-13.62v13.77Z"/>
            <path class="cls-1" d="M1485.8,455.44h-13.44v14.24h13.44Z"/>
            <path class="cls-1" d="M1388.41,267.08V253.57h-13v13.51Z"/>
            <path class="cls-1" d="M1477.09,249.92l10.89.59v-13h-10.89Z"/>
            <path class="cls-1"
                  d="M2193.26,597.2h-171v-113h142.15c2.16,0,4.34,0,6.49-.17,20.89-1.92,37-9.81,36.77-39.24-.66-98-.25-196-.25-294,0-2.33,0-4.67-.16-7-1-12.79-7-22.38-19.15-26.73a67.61,67.61,0,0,0-21.87-4.2c-49.33-.36-98.65-.21-148-.16-2.93,0-6.71-.16-7,3.84-.31,4.25-2.86,9.42,3,12.29,3.83,1.87,4.94,5,4.51,9.11-.35,3.26-.38,6.54-.57,10.31L2005.44,150V165.3l11.76,1.42V235c-3.4,1-8,.93-9.67,3.12-2,2.49-1.37,7-1.93,10.58a6.69,6.69,0,0,1-.82,1.6h-19.39c-.84,5-1.62,9.74-2.38,14.33h-14.1V237.43h-16.25c-.48,4.32-.92,8.26-1.38,12.38h-14.17c-.33-2.88-.84-5.66-.91-8.44-.08-3.24-1.25-4.86-4.71-4.85-3.31,0-6.62-.44-10-.7-.29-1.28-.62-2.39-.78-3.53-1.69-11.88-1.69-11.88-13.92-13.16a1.66,1.66,0,0,0-.49.07v-12c11.23-1.26,11.23-1.26,11.15-12.34,0-1.47-.13-2.93-.21-4.51l-10.94-2.15V.2c2-.06,4-.16,6-.16q135.16,0,270.31,0c26.12,0,51.77,3.69,76.36,13,37.09,14,62,39.11,70.9,78.6,1.44,6.44,2.31,13,3.45,19.53v376a47.22,47.22,0,0,0-1,4.66c-4.35,37.44-22.05,66.1-55.58,84.24-18.38,9.93-38.24,15.23-58.81,18.08C2209.68,595.32,2201.46,596.2,2193.26,597.2ZM1994.19,135c-1.38-15.11-3.81-18.15-13-16.75-6.36,1-8.32,6.31-6.05,16.75Zm-61.82,22h17.42V142.14h-17.42Zm56.25,17c.94,4.7,1.56,8.61,2.53,12.43,1.55,6.13,7.61,9,12.49,5.11,2.4-1.92,3.26-6.58,3.45-10.07.08-1.68-2.73-4.43-4.75-5.09C1998.29,175,1993.88,174.76,1988.62,173.92ZM1920,164.28c0,5.18-3.06,11.37,1.64,14.54,3.15,2.12,8.88.4,13.41.4V164.28ZM1948,209h16V193.61c-5.17.48-11.37-.7-14.2,1.85C1947.19,197.74,1948.4,204.15,1948,209Zm.76-29.73h15.16V164.42h-15.16Zm28.4-29c0,4.46-.17,8.6.13,12.7a3.89,3.89,0,0,0,2.63,2.73c4.06.31,8.16.13,12.24.13V150.26Zm-24-49v15.09h15V101.26Zm28.84,94.14v-15h-14.54v15Zm-30.48,38.69v-15H1936.5v15Zm41,3.65V223.08h-14.84v14.66Z"/>
            <path class="cls-1"
                  d="M1994.79,332.94V286.38c-2.93-.34-5.64-1.15-8.17-.79-2.38.35-6.2,1.53-6.58,3.06-1.58,6.2-6,5.69-10.53,5.7-7.41,0-14.83,0-22.49,0v14.48c1.49.43,2.77,1.12,4,1.1,4.94-.09,6.06,2.75,6,7-.14,5.26,0,10.52,0,16Zm-14.59,39.44v14.44h14.26V372.38ZM2019.47,393h-14v14h14Zm-95.32-62.43v13.72h13.9V330.57Zm36.89,21v14.3h13.37v-14.3Zm-53.39,37.39h14.18V375h-14.18ZM2003,306.59c.35,4.81.66,9.07,1,13.36h13.94V305Zm-38.89-24.2V268.48h-13.66v13.91Zm-56.49,20.67H1922V289.44h-14.39Zm96.76,52.3H2018V341.59h-13.62Zm-94.67,100.08v14.24h13.44V455.44Zm97.39-188.36h13V253.57h-13Zm-88.68-17.16V237.54h-10.9v13Z"/>
            <path class="cls-1"
                  d="M1994.79,332.94H1957c0-5.5-.1-10.76,0-16,.1-4.23-1-7.07-6-7-1.26,0-2.54-.67-4-1.1V294.36c7.66,0,15.08,0,22.49,0,4.48,0,9,.5,10.53-5.7.38-1.53,4.2-2.71,6.58-3.06,2.53-.36,5.24.45,8.17.79Z"/>
            <path class="cls-1" d="M1980.2,372.38h14.26v14.44H1980.2Z"/>
            <path class="cls-1" d="M2019.47,393v14h-14V393Z"/>
            <path class="cls-1" d="M1924.15,330.57h13.9v13.72h-13.9Z"/>
            <path class="cls-1" d="M1961,351.55h13.37v14.3H1961Z"/>
            <path class="cls-1" d="M1907.65,388.94V375h14.18v13.92Z"/>
            <path class="cls-1" d="M2003,306.59l14.91-1.58V320H2004C2003.67,315.66,2003.36,311.4,2003,306.59Z"/>
            <path class="cls-1" d="M1964.12,282.39h-13.66V268.48h13.66Z"/>
            <path class="cls-1" d="M1907.63,303.06V289.44H1922v13.62Z"/>
            <path class="cls-1" d="M2004.39,355.36V341.59H2018v13.77Z"/>
            <path class="cls-1" d="M1909.72,455.44h13.44v14.24h-13.44Z"/>
            <path class="cls-1" d="M2007.11,267.08V253.57h13v13.51Z"/>
            <path class="cls-1" d="M1918.43,249.92l-10.9.59v-13h10.9Z"/>
            <path class="cls-1"
                  d="M287,597.2H116v-113H258.15c2.16,0,4.34,0,6.49-.17,20.89-1.92,37-9.81,36.77-39.24-.65-98-.24-196-.25-294,0-2.33,0-4.67-.16-7-1-12.79-7-22.38-19.15-26.73A67.61,67.61,0,0,0,260,112.9c-49.32-.36-98.65-.21-148-.16-2.93,0-6.71-.16-7,3.84-.31,4.25-2.86,9.42,3,12.29,3.83,1.87,4.94,5,4.51,9.11-.35,3.26-.37,6.54-.57,10.31L99.19,150V165.3l11.75,1.42V235c-3.4,1-8,.93-9.67,3.12-2,2.49-1.37,7-1.93,10.58a6.69,6.69,0,0,1-.82,1.6H79.13c-.84,5-1.62,9.74-2.38,14.33H62.65V237.43H46.4c-.48,4.32-.92,8.26-1.38,12.38H30.85c-.33-2.88-.83-5.66-.91-8.44-.08-3.24-1.25-4.86-4.71-4.85-3.31,0-6.62-.44-10-.7-.29-1.28-.62-2.39-.78-3.53-1.69-11.88-1.68-11.88-13.92-13.16a1.66,1.66,0,0,0-.49.07v-12c11.23-1.26,11.24-1.26,11.16-12.34,0-1.47-.14-2.93-.22-4.51L0,188.2V.2C2,.14,4,0,6,0q135.17,0,270.31,0c26.12,0,51.77,3.69,76.36,13,37.09,14,62,39.11,70.9,78.6,1.45,6.44,2.31,13,3.45,19.53v376c-.34,1.55-.82,3.09-1,4.66-4.35,37.44-22.05,66.1-55.58,84.24C352,586,332.17,591.33,311.6,594.18,303.42,595.32,295.2,596.2,287,597.2ZM87.93,135c-1.38-15.11-3.81-18.15-13-16.75-6.37,1-8.33,6.31-6.06,16.75ZM26.11,157H43.53V142.14H26.11Zm56.25,17c.94,4.7,1.56,8.61,2.53,12.43,1.55,6.13,7.61,9,12.49,5.11,2.4-1.92,3.27-6.58,3.45-10.07.08-1.68-2.73-4.43-4.75-5.09C92,175,87.62,174.76,82.36,173.92ZM13.7,164.28c-.06,5.18-3.07,11.37,1.63,14.54,3.15,2.12,8.88.4,13.41.4V164.28Zm28,44.72h16V193.61c-5.17.48-11.37-.7-14.2,1.85C40.93,197.74,42.15,204.15,41.69,209Zm.76-29.73H57.61V164.42H42.45Zm28.41-29c0,4.46-.18,8.6.12,12.7a3.91,3.91,0,0,0,2.63,2.73c4.06.31,8.16.13,12.24.13V150.26Zm-24-49v15.09h15V101.26ZM75.66,195.4v-15H61.12v15ZM45.18,234.09v-15H30.24v15Zm41,3.65V223.08H71.32v14.66Z"/>
            <path class="cls-1"
                  d="M88.53,332.94V286.38c-2.93-.34-5.63-1.15-8.17-.79-2.38.35-6.19,1.53-6.58,3.06-1.58,6.2-6,5.69-10.53,5.7-7.41,0-14.83,0-22.49,0v14.48c1.49.43,2.77,1.12,4,1.1,4.94-.09,6.07,2.75,6,7-.14,5.26,0,10.52,0,16ZM73.94,372.38v14.44H88.21V372.38ZM113.22,393h-14v14h14ZM17.89,330.57v13.72h13.9V330.57Zm36.89,21v14.3H68.15v-14.3ZM1.39,388.94H15.57V375H1.39Zm95.37-82.35c.34,4.81.65,9.07,1,13.36h13.93V305Zm-38.9-24.2V268.48H44.2v13.91ZM1.37,303.06H15.76V289.44H1.37Zm96.76,52.3h13.62V341.59H98.13ZM3.46,455.44v14.24H16.9V455.44Zm97.39-188.36h13V253.57h-13ZM12.17,249.92V237.54H1.28v13Z"/>
            <path class="cls-1"
                  d="M88.53,332.94H50.71c0-5.5-.1-10.76,0-16,.11-4.23-1-7.07-6-7-1.26,0-2.54-.67-4-1.1V294.36c7.66,0,15.08,0,22.49,0,4.48,0,9,.5,10.53-5.7.39-1.53,4.2-2.71,6.58-3.06,2.54-.36,5.24.45,8.17.79Z"/>
            <path class="cls-1" d="M73.94,372.38H88.21v14.44H73.94Z"/>
            <path class="cls-1" d="M113.22,393v14h-14V393Z"/>
            <path class="cls-1" d="M17.89,330.57h13.9v13.72H17.89Z"/>
            <path class="cls-1" d="M54.78,351.55H68.15v14.3H54.78Z"/>
            <path class="cls-1" d="M1.39,388.94V375H15.57v13.92Z"/>
            <path class="cls-1" d="M96.76,306.59l14.9-1.58V320H97.73C97.41,315.66,97.1,311.4,96.76,306.59Z"/>
            <path class="cls-1" d="M57.86,282.39H44.2V268.48H57.86Z"/>
            <path class="cls-1" d="M1.37,303.06V289.44H15.76v13.62Z"/>
            <path class="cls-1" d="M98.13,355.36V341.59h13.62v13.77Z"/>
            <path class="cls-1" d="M3.46,455.44H16.9v14.24H3.46Z"/>
            <path class="cls-1" d="M100.85,267.08V253.57h13v13.51Z"/>
            <path class="cls-1" d="M12.17,249.92l-10.89.59v-13H12.17Z"/>
            <path class="cls-1"
                  d="M1872.38,549.79q0,47.69-64.75,47.69H1587.21q-63.82,0-63.83-47.69V429.39H1629V530.44h138.22V399.38l-131.79-65.7V317.34l131.79-64.7V142.58H1629v95H1523.38V123.57q0-48,65.21-48h219q64.75,0,64.75,48V246.3q0,31-35.82,48L1770,325.67l67.5,30.68q34.89,15.69,34.9,47Z"/>
            <path class="cls-1"
                  d="M583.17,545.23q0,27.59-27.35,27.59H477.7q-27.34,0-27.35-27.59V362.85q0-27.59,27.35-27.58h78.12q27.34,0,27.35,27.58V448.3l-11,11.48H481.85v85.94h69.82V502.26h31.5ZM551.67,433.9V362.37H481.85V433.9Z"/>
            <path class="cls-1"
                  d="M773.35,572.82H740.88V364.32l-71.53,1.95V572.82H636.88V335.27h32.47v6.59q19-2.44,38.33-5.13,23.43-2.93,38.57-2.93,27.11,0,27.1,26.61Z"/>
            <path class="cls-1" d="M860.27,283.27h-33v-41h33Zm-.49,289.55h-32V335.27h32Z"/>
            <path class="cls-1"
                  d="M1042.88,545.23q0,27.59-27.59,27.59H940.83q-27.58,0-27.59-27.59v-54h32v53.47h65.67V497.38l-85-69.58a31,31,0,0,1-12.21-25.39V362.85q0-27.59,27.59-27.58h73.49q27.59,0,27.58,27.58v47.37H1010.9V363.34H945.23v41.51l85.69,69.58q12,9.51,12,25.88Z"/>
        </g>
    </g>
</svg>
